<svg width="80" height="80" viewBox="0 0 80 80" fill="none" xmlns="http://www.w3.org/2000/svg">
<path d="M68.3333 46.6667C67.4493 46.6667 66.6014 47.0179 65.9763 47.643C65.3512 48.2682 65 49.116 65 50.0001V63.3334C65 64.2174 64.6488 65.0653 64.0237 65.6904C63.3986 66.3155 62.5507 66.6667 61.6667 66.6667H15C14.1159 66.6667 13.2681 66.3155 12.643 65.6904C12.0179 65.0653 11.6667 64.2174 11.6667 63.3334V31.3667L31.2667 51.0001C33.1417 52.8727 35.6833 53.9246 38.3333 53.9246C40.9833 53.9246 43.525 52.8727 45.4 51.0001L50.8667 45.5334C51.4943 44.9057 51.847 44.0544 51.847 43.1667C51.847 42.2791 51.4943 41.4277 50.8667 40.8001C50.239 40.1724 49.3877 39.8198 48.5 39.8198C47.6123 39.8198 46.761 40.1724 46.1333 40.8001L40.6667 46.2667C40.0436 46.8775 39.2058 47.2196 38.3333 47.2196C37.4608 47.2196 36.6231 46.8775 36 46.2667L16.3667 26.6667H38.3333C39.2174 26.6667 40.0652 26.3155 40.6904 25.6904C41.3155 25.0653 41.6667 24.2174 41.6667 23.3334C41.6667 22.4493 41.3155 21.6015 40.6904 20.9764C40.0652 20.3513 39.2174 20.0001 38.3333 20.0001H15C12.3478 20.0001 9.8043 21.0536 7.92893 22.929C6.05357 24.8044 5 27.3479 5 30.0001V63.3334C5 65.9856 6.05357 68.5291 7.92893 70.4045C9.8043 72.2798 12.3478 73.3334 15 73.3334H61.6667C64.3188 73.3334 66.8624 72.2798 68.7377 70.4045C70.6131 68.5291 71.6667 65.9856 71.6667 63.3334V50.0001C71.6667 49.116 71.3155 48.2682 70.6904 47.643C70.0652 47.0179 69.2174 46.6667 68.3333 46.6667ZM74.0333 17.6334L64.0333 7.63339C63.7163 7.32993 63.3425 7.09204 62.9333 6.93339C62.1218 6.6 61.2115 6.6 60.4 6.93339C59.9908 7.09204 59.617 7.32993 59.3 7.63339L49.3 17.6334C48.6723 18.2611 48.3197 19.1124 48.3197 20.0001C48.3197 20.8877 48.6723 21.739 49.3 22.3667C49.9277 22.9944 50.779 23.347 51.6667 23.347C52.5543 23.347 53.4057 22.9944 54.0333 22.3667L58.3333 18.0334V36.6667C58.3333 37.5508 58.6845 38.3986 59.3096 39.0237C59.9348 39.6489 60.7826 40.0001 61.6667 40.0001C62.5507 40.0001 63.3986 39.6489 64.0237 39.0237C64.6488 38.3986 65 37.5508 65 36.6667V18.0334L69.3 22.3667C69.6099 22.6792 69.9785 22.9271 70.3847 23.0964C70.7909 23.2656 71.2266 23.3527 71.6667 23.3527C72.1067 23.3527 72.5424 23.2656 72.9486 23.0964C73.3548 22.9271 73.7234 22.6792 74.0333 22.3667C74.3458 22.0569 74.5937 21.6882 74.763 21.282C74.9322 20.8758 75.0193 20.4401 75.0193 20.0001C75.0193 19.56 74.9322 19.1243 74.763 18.7181C74.5937 18.3119 74.3458 17.9433 74.0333 17.6334Z" fill="#0070B8"/>
</svg>
