<svg width="30" height="34" viewBox="0 0 30 34" fill="none" xmlns="http://www.w3.org/2000/svg">
<path d="M27.1509 3.18291C27.3058 3.33913 27.4902 3.46312 27.6933 3.54773C27.8964 3.63235 28.1142 3.67591 28.3342 3.67591C28.5542 3.67591 28.7721 3.63235 28.9752 3.54773C29.1783 3.46312 29.3626 3.33913 29.5175 3.18291C29.6648 3.02091 29.7831 2.83489 29.8675 2.63292C29.9529 2.43254 29.9982 2.21738 30.0009 1.99958C30.0021 1.78024 29.9601 1.5628 29.8772 1.35974C29.7942 1.15667 29.672 0.971982 29.5175 0.816248L29.2675 0.616248C29.1746 0.553171 29.0738 0.502729 28.9675 0.466248C28.664 0.338616 28.3295 0.303745 28.0062 0.366035C27.6829 0.428325 27.3853 0.584985 27.1509 0.816248C26.9964 0.971982 26.8742 1.15667 26.7913 1.35974C26.7083 1.5628 26.6663 1.78024 26.6675 1.99958C26.6702 2.21738 26.7155 2.43254 26.8009 2.63292C26.8853 2.83489 27.0037 3.02091 27.1509 3.18291ZM28.3342 5.33291C27.8922 5.33291 27.4683 5.50851 27.1557 5.82107C26.8431 6.13363 26.6675 6.55755 26.6675 6.99958V13.6662C26.6675 14.1083 26.8431 14.5322 27.1557 14.8448C27.4683 15.1573 27.8922 15.3329 28.3342 15.3329C28.7762 15.3329 29.2002 15.1573 29.5127 14.8448C29.8253 14.5322 30.0009 14.1083 30.0009 13.6662V6.99958C30.0009 6.55755 29.8253 6.13363 29.5127 5.82107C29.2002 5.50851 28.7762 5.33291 28.3342 5.33291ZM28.4342 18.6662C27.9968 18.6145 27.5567 18.7379 27.2101 19.0096C26.8634 19.2813 26.6384 19.6792 26.5842 20.1162C26.2307 22.9385 24.8584 25.5344 22.7253 27.4158C20.5921 29.2973 17.8452 30.3347 15.0009 30.3329H5.68422L6.75088 29.2829C7.0613 28.9706 7.23554 28.5482 7.23554 28.1079C7.23554 27.6676 7.0613 27.2452 6.75088 26.9329C5.11337 25.3022 3.99705 23.2219 3.54352 20.9558C3.09 18.6897 3.31968 16.34 4.20346 14.2047C5.08723 12.0693 6.58528 10.2446 8.50759 8.96181C10.4299 7.67905 12.6899 6.9961 15.0009 6.99958C17.0444 6.99649 19.052 7.53721 20.8175 8.56625C21.1935 8.73617 21.6192 8.76059 22.0121 8.63479C22.4051 8.50898 22.7374 8.24188 22.9448 7.88519C23.1522 7.52849 23.2199 7.10755 23.1348 6.70382C23.0497 6.30008 22.8179 5.94226 22.4842 5.69958C20.2161 4.36573 17.6321 3.66363 15.0009 3.66625C12.18 3.67552 9.41889 4.48005 7.03453 5.98748C4.65017 7.49491 2.7392 9.64414 1.521 12.1884C0.302794 14.7327 -0.173269 17.569 0.147458 20.3716C0.468185 23.1742 1.5727 25.8296 3.33422 28.0329L0.484217 30.8162C0.252954 31.0506 0.0962937 31.3482 0.0340035 31.6716C-0.0282867 31.9949 0.00658441 32.3294 0.134217 32.6329C0.25925 32.9373 0.47158 33.1978 0.744447 33.3817C1.01731 33.5656 1.33851 33.6646 1.66755 33.6662H15.0009C18.6558 33.6662 22.185 32.3317 24.9256 29.9134C27.6661 27.4952 29.4294 24.1595 29.8842 20.5329C29.9122 20.315 29.8969 20.0938 29.8391 19.8819C29.7812 19.67 29.6821 19.4716 29.5474 19.2981C29.4126 19.1246 29.2449 18.9795 29.0539 18.871C28.8628 18.7626 28.6522 18.693 28.4342 18.6662Z" fill="#0070B8"/>
</svg>
