<svg width="28" height="28" viewBox="0 0 28 28" fill="none" xmlns="http://www.w3.org/2000/svg">
<path d="M2.33268 14.0003C1.89065 14.0003 1.46673 14.1759 1.15417 14.4885C0.841611 14.801 0.666016 15.225 0.666016 15.667C0.666016 16.109 0.841611 16.5329 1.15417 16.8455C1.46673 17.1581 1.89065 17.3337 2.33268 17.3337C4.54282 17.3337 6.66244 18.2116 8.22524 19.7744C9.78804 21.3372 10.666 23.4569 10.666 25.667C10.666 26.109 10.8416 26.5329 11.1542 26.8455C11.4667 27.1581 11.8907 27.3337 12.3327 27.3337C12.7747 27.3337 13.1986 27.1581 13.5112 26.8455C13.8238 26.5329 13.9993 26.109 13.9993 25.667C13.9993 22.5728 12.7702 19.6053 10.5823 17.4174C8.39434 15.2295 5.42687 14.0003 2.33268 14.0003ZM2.33268 0.666992C1.89065 0.666992 1.46673 0.842587 1.15417 1.15515C0.841611 1.46771 0.666016 1.89163 0.666016 2.33366C0.666016 2.77569 0.841611 3.19961 1.15417 3.51217C1.46673 3.82473 1.89065 4.00033 2.33268 4.00033C8.07904 4.00033 13.59 6.28306 17.6533 10.3463C21.7166 14.4096 23.9993 19.9206 23.9993 25.667C23.9993 26.109 24.1749 26.5329 24.4875 26.8455C24.8001 27.1581 25.224 27.3337 25.666 27.3337C26.108 27.3337 26.532 27.1581 26.8445 26.8455C27.1571 26.5329 27.3327 26.109 27.3327 25.667C27.3327 19.0366 24.6988 12.6777 20.0104 7.98932C15.3219 3.30091 8.96309 0.666992 2.33268 0.666992ZM2.33268 7.33366C1.89065 7.33366 1.46673 7.50925 1.15417 7.82181C0.841611 8.13438 0.666016 8.5583 0.666016 9.00033C0.666016 9.44235 0.841611 9.86628 1.15417 10.1788C1.46673 10.4914 1.89065 10.667 2.33268 10.667C6.31093 10.667 10.1262 12.2473 12.9393 15.0604C15.7523 17.8734 17.3327 21.6887 17.3327 25.667C17.3327 26.109 17.5083 26.5329 17.8208 26.8455C18.1334 27.1581 18.5573 27.3337 18.9993 27.3337C19.4414 27.3337 19.8653 27.1581 20.1779 26.8455C20.4904 26.5329 20.666 26.109 20.666 25.667C20.666 20.8047 18.7345 16.1415 15.2963 12.7034C11.8581 9.2652 7.19498 7.33366 2.33268 7.33366Z" fill="#0070B8"/>
</svg>
