<svg width="14" height="16" viewBox="0 0 14 16" fill="none" xmlns="http://www.w3.org/2000/svg">
<path d="M13.0001 5.00037L8.50007 1.05537C8.08755 0.686405 7.55352 0.482422 7.00007 0.482422C6.44662 0.482422 5.91259 0.686405 5.50007 1.05537L1.00007 5.00037C0.761847 5.21343 0.571746 5.47479 0.442425 5.76705C0.313104 6.05932 0.247531 6.37578 0.250071 6.69537V13.2504C0.250071 13.8471 0.487124 14.4194 0.909081 14.8414C1.33104 15.2633 1.90333 15.5004 2.50007 15.5004H11.5001C12.0968 15.5004 12.6691 15.2633 13.0911 14.8414C13.513 14.4194 13.7501 13.8471 13.7501 13.2504V6.68787C13.7515 6.36954 13.6855 6.05453 13.5562 5.76363C13.4269 5.47274 13.2373 5.21259 13.0001 5.00037ZM8.50007 14.0004H5.50007V10.2504C5.50007 10.0515 5.57909 9.86069 5.71974 9.72004C5.86039 9.57939 6.05116 9.50037 6.25007 9.50037H7.75007C7.94898 9.50037 8.13975 9.57939 8.2804 9.72004C8.42105 9.86069 8.50007 10.0515 8.50007 10.2504V14.0004ZM12.2501 13.2504C12.2501 13.4493 12.1711 13.64 12.0304 13.7807C11.8897 13.9214 11.699 14.0004 11.5001 14.0004H10.0001V10.2504C10.0001 9.65363 9.76302 9.08134 9.34106 8.65938C8.9191 8.23742 8.34681 8.00037 7.75007 8.00037H6.25007C5.65333 8.00037 5.08104 8.23742 4.65908 8.65938C4.23712 9.08134 4.00007 9.65363 4.00007 10.2504V14.0004H2.50007C2.30116 14.0004 2.11039 13.9214 1.96974 13.7807C1.82909 13.64 1.75007 13.4493 1.75007 13.2504V6.68787C1.75021 6.58138 1.77302 6.47614 1.81698 6.37916C1.86095 6.28217 1.92507 6.19565 2.00507 6.12537L6.50507 2.18787C6.64194 2.06763 6.81789 2.00132 7.00007 2.00132C7.18225 2.00132 7.3582 2.06763 7.49507 2.18787L11.9951 6.12537C12.0751 6.19565 12.1392 6.28217 12.1832 6.37916C12.2271 6.47614 12.2499 6.58138 12.2501 6.68787V13.2504Z" fill="#0070B8"/>
</svg>
