<svg width="34" height="30" viewBox="0 0 34 30" fill="none" xmlns="http://www.w3.org/2000/svg">
<path d="M25.334 13.3333H23.6673C23.2253 13.3333 22.8014 13.5089 22.4888 13.8215C22.1762 14.134 22.0007 14.558 22.0007 15C22.0007 15.442 22.1762 15.8659 22.4888 16.1785C22.8014 16.4911 23.2253 16.6667 23.6673 16.6667H25.334C25.776 16.6667 26.1999 16.4911 26.5125 16.1785C26.8251 15.8659 27.0007 15.442 27.0007 15C27.0007 14.558 26.8251 14.134 26.5125 13.8215C26.1999 13.5089 25.776 13.3333 25.334 13.3333ZM25.334 20H23.6673C23.2253 20 22.8014 20.1756 22.4888 20.4882C22.1762 20.8007 22.0007 21.2246 22.0007 21.6667C22.0007 22.1087 22.1762 22.5326 22.4888 22.8452C22.8014 23.1577 23.2253 23.3333 23.6673 23.3333H25.334C25.776 23.3333 26.1999 23.1577 26.5125 22.8452C26.8251 22.5326 27.0007 22.1087 27.0007 21.6667C27.0007 21.2246 26.8251 20.8007 26.5125 20.4882C26.1999 20.1756 25.776 20 25.334 20ZM15.334 10H25.334C25.776 10 26.1999 9.8244 26.5125 9.51184C26.8251 9.19928 27.0007 8.77536 27.0007 8.33333C27.0007 7.89131 26.8251 7.46738 26.5125 7.15482C26.1999 6.84226 25.776 6.66667 25.334 6.66667H15.334C14.892 6.66667 14.468 6.84226 14.1555 7.15482C13.8429 7.46738 13.6673 7.89131 13.6673 8.33333C13.6673 8.77536 13.8429 9.19928 14.1555 9.51184C14.468 9.8244 14.892 10 15.334 10ZM32.0007 0H8.66732C8.22529 0 7.80137 0.175595 7.48881 0.488155C7.17625 0.800716 7.00065 1.22464 7.00065 1.66667V6.66667H2.00065C1.55862 6.66667 1.1347 6.84226 0.82214 7.15482C0.509579 7.46738 0.333984 7.89131 0.333984 8.33333V25C0.333984 26.3261 0.860769 27.5979 1.79845 28.5355C2.73613 29.4732 4.0079 30 5.33398 30H27.0007C28.7688 30 30.4645 29.2976 31.7147 28.0474C32.9649 26.7971 33.6673 25.1014 33.6673 23.3333V1.66667C33.6673 1.22464 33.4917 0.800716 33.1792 0.488155C32.8666 0.175595 32.4427 0 32.0007 0ZM7.00065 25C7.00065 25.442 6.82506 25.866 6.5125 26.1785C6.19993 26.4911 5.77601 26.6667 5.33398 26.6667C4.89196 26.6667 4.46803 26.4911 4.15547 26.1785C3.84291 25.866 3.66732 25.442 3.66732 25V10H7.00065V25ZM30.334 23.3333C30.334 24.2174 29.9828 25.0652 29.3577 25.6904C28.7326 26.3155 27.8847 26.6667 27.0007 26.6667H10.034C10.228 26.1322 10.3295 25.5686 10.334 25V3.33333H30.334V23.3333ZM15.334 16.6667H17.0007C17.4427 16.6667 17.8666 16.4911 18.1792 16.1785C18.4917 15.8659 18.6673 15.442 18.6673 15C18.6673 14.558 18.4917 14.134 18.1792 13.8215C17.8666 13.5089 17.4427 13.3333 17.0007 13.3333H15.334C14.892 13.3333 14.468 13.5089 14.1555 13.8215C13.8429 14.134 13.6673 14.558 13.6673 15C13.6673 15.442 13.8429 15.8659 14.1555 16.1785C14.468 16.4911 14.892 16.6667 15.334 16.6667ZM15.334 23.3333H17.0007C17.4427 23.3333 17.8666 23.1577 18.1792 22.8452C18.4917 22.5326 18.6673 22.1087 18.6673 21.6667C18.6673 21.2246 18.4917 20.8007 18.1792 20.4882C17.8666 20.1756 17.4427 20 17.0007 20H15.334C14.892 20 14.468 20.1756 14.1555 20.4882C13.8429 20.8007 13.6673 21.2246 13.6673 21.6667C13.6673 22.1087 13.8429 22.5326 14.1555 22.8452C14.468 23.1577 14.892 23.3333 15.334 23.3333Z" fill="#0070B8"/>
</svg>
